<?xml version="1.0" encoding="iso-8859-1"?>
<!-- Uploaded to: SVG Repo, www.svgrepo.com, Generator: SVG Repo Mixer Tools -->
<svg height="800px" width="800px" version="1.1" id="Layer_1" xmlns="http://www.w3.org/2000/svg" xmlns:xlink="http://www.w3.org/1999/xlink" 
	 viewBox="0 0 512 512" xml:space="preserve">
<path style="fill:#EE8FBD;" d="M479.855,303.21c-4.462-4.015-10.724-5.355-16.438-3.52c-36.177,11.623-73.59,20.249-111.201,25.64
	c-5.931,0.85-10.965,4.782-13.226,10.33c-2.261,5.548-1.408,11.878,2.24,16.631c24.789,32.295,52.488,63.31,82.33,92.184
	c3.18,3.076,7.399,4.745,11.726,4.745c1.26,0,2.53-0.142,3.785-0.431c5.568-1.283,10.107-5.297,12.063-10.665
	c14.224-39.079,25.648-79.096,33.952-118.935C486.309,313.31,484.318,307.226,479.855,303.21z"/>
<path style="fill:#EE72AE;" d="M479.855,303.21c-4.462-4.015-10.724-5.355-16.438-3.52c-19.403,6.234-39.164,11.597-59.119,16.07
	l35.965,132.703c5.019-1.55,9.057-5.361,10.87-10.34c14.224-39.079,25.648-79.096,33.952-118.935
	C486.309,313.31,484.318,307.226,479.855,303.21z"/>
<path style="fill:#E78600;" d="M173.014,335.66c-2.261-5.548-7.294-9.481-13.226-10.33c-37.615-5.391-75.028-14.018-111.202-25.64
	c-5.716-1.838-11.976-0.496-16.438,3.519c-4.462,4.015-6.453,10.1-5.229,15.977c8.302,39.834,19.725,79.85,33.952,118.936
	c1.954,5.368,6.494,9.383,12.063,10.665c1.256,0.289,2.525,0.431,3.786,0.431c4.327,0,8.547-1.668,11.726-4.745
	c29.84-28.871,57.54-59.886,82.33-92.182C174.421,347.54,175.274,341.207,173.014,335.66z"/>
<path style="fill:#D17900;" d="M173.014,335.66c-2.261-5.548-7.294-9.481-13.226-10.33c-19.558-2.803-39.06-6.488-58.363-11.008
	L71.416,448.355c0.496,0.164,1,0.314,1.514,0.433c1.256,0.289,2.525,0.431,3.786,0.431c4.327,0,8.547-1.668,11.726-4.745
	c29.84-28.871,57.54-59.886,82.33-92.182C174.421,347.54,175.274,341.207,173.014,335.66z"/>
<path style="fill:#397F49;" d="M490.441,43.665l-27.025,8.678c-36.177,11.623-73.59,20.249-111.201,25.64l-27.96,4.006
	c28.87,40.565,62.453,79.485,99.304,115.138c3.18,3.076,7.399,4.745,11.726,4.745c1.26,0,2.53-0.142,3.785-0.431
	c5.568-1.283,10.107-5.297,12.063-10.665C468.715,142.47,482.018,92.733,490.441,43.665z"/>
<path style="fill:#107527;" d="M463.417,52.344c-16.582,5.328-33.425,10.018-50.428,14.063l25.491,135.137
	c0.197-0.038,0.395-0.056,0.591-0.101c5.568-1.283,10.107-5.297,12.063-10.665c17.583-48.307,30.884-98.043,39.309-147.112
	L463.417,52.344z"/>
<path id="SVGCleanerId_0" style="fill:#E9C013;" d="M187.746,81.989l-27.959-4.006c-37.615-5.391-75.028-14.018-111.202-25.64
	L21.56,43.651c8.418,49.063,21.72,98.804,39.309,147.126c1.954,5.369,6.494,9.383,12.063,10.665
	c1.256,0.289,2.525,0.431,3.786,0.431c4.327,0,8.547-1.668,11.726-4.745C125.292,161.477,158.877,122.556,187.746,81.989z"/>
<g>
	<path id="SVGCleanerId_0_1_" style="fill:#E9C013;" d="M187.746,81.989l-27.959-4.006c-37.615-5.391-75.028-14.018-111.202-25.64
		L21.56,43.651c8.418,49.063,21.72,98.804,39.309,147.126c1.954,5.369,6.494,9.383,12.063,10.665
		c1.256,0.289,2.525,0.431,3.786,0.431c4.327,0,8.547-1.668,11.726-4.745C125.292,161.477,158.877,122.556,187.746,81.989z"/>
</g>
<path style="fill:#DEB300;" d="M159.787,77.983c-19.612-2.811-39.168-6.51-58.523-11.045l-30.064,134
	c0.566,0.196,1.141,0.369,1.731,0.505c1.256,0.289,2.525,0.431,3.786,0.431c4.327,0,8.547-1.668,11.726-4.745
	c36.848-35.651,70.433-74.572,99.304-115.139L159.787,77.983z"/>
<path style="fill:#2F6EAF;" d="M328.773,336.82c-3.454-4.893-9.236-7.594-15.211-7.08c-19.06,1.624-38.426,2.446-57.557,2.446
	c-18.564,0-37.356-0.775-55.855-2.304c-5.964-0.489-11.75,2.216-15.193,7.118c-3.441,4.902-4.024,11.261-1.531,16.706
	c16.9,36.938,36.893,73.335,59.423,108.181c3.108,4.806,8.44,7.708,14.163,7.708c0.007,0,0.015,0,0.021,0
	c5.731-0.007,11.065-2.924,14.165-7.744c22.435-34.895,42.337-71.342,59.15-108.33C332.824,348.071,332.225,341.713,328.773,336.82z
	"/>
<path style="fill:#0E5DAF;" d="M328.773,336.82c-3.454-4.893-9.236-7.594-15.211-7.08c-18.771,1.599-37.837,2.417-56.685,2.442
	v137.41c0.045,0,0.089,0.005,0.133,0.005c0.007,0,0.015,0,0.021,0c5.731-0.007,11.065-2.924,14.165-7.744
	c22.435-34.895,42.337-71.342,59.15-108.33C332.824,348.071,332.225,341.713,328.773,336.82z"/>
<path style="fill:#582277;" d="M341.701,79.978l-28.139,2.417c-19.06,1.623-38.426,2.446-57.557,2.446
	c-18.564,0-37.356-0.775-55.855-2.304l-28.124-2.304c19.041,45.867,42.997,91.271,70.822,134.309
	c3.108,4.806,8.44,7.708,14.163,7.708c0.007,0,0.015,0,0.021,0c5.731-0.007,11.065-2.924,14.165-7.744
	C298.912,171.398,322.762,125.918,341.701,79.978z"/>
<path style="fill:#4F0A77;" d="M313.562,82.395c-19.06,1.623-38.426,2.446-57.557,2.446c-0.062,0-0.124-0.001-0.187-0.001v137.366
	c0.396,0.028,0.793,0.046,1.192,0.046c0.007,0,0.015,0,0.021,0c5.731-0.007,11.065-2.924,14.165-7.744
	c27.717-43.109,51.567-88.589,70.506-134.53L313.562,82.395z"/>
<g>
	<path style="fill:#3E3E42;" d="M255.999,365.864c-82.98,0-165.959-14.471-244.933-43.413C2.321,319.247-2.17,309.56,1.034,300.814
		c3.205-8.746,12.896-13.233,21.637-10.031c150.463,55.14,316.191,55.139,466.656,0c8.741-3.207,18.433,1.286,21.637,10.032
		c3.205,8.745-1.287,18.433-10.032,21.637C421.96,351.394,338.98,365.864,255.999,365.864z"/>
	<path style="fill:#3E3E42;" d="M255.999,118.519c-82.98,0-165.959-14.471-244.933-43.413C2.323,71.902-2.17,62.214,1.035,53.469
		c3.205-8.746,12.896-13.235,21.637-10.031c150.463,55.139,316.191,55.139,466.656,0c8.741-3.207,18.433,1.286,21.637,10.032
		c3.205,8.745-1.287,18.433-10.032,21.637C421.96,104.048,338.98,118.519,255.999,118.519z"/>
</g>
</svg>